<svg width="261" height="161" viewBox="0 0 261 161">
<path d="M10.111 156.288C10.111 153.686 7.84759 151.576 5.05551 151.576C2.26342 151.576 -3.19724e-07 153.686 -2.05969e-07 156.288C-9.22134e-08 158.89 2.26342 161 5.05551 161C7.84759 161 10.111 158.89 10.111 156.288Z" fill="#4AA5A5"/>
<path d="M10.111 105.763C10.111 103.16 7.84759 101.051 5.05551 101.051C2.26342 101.051 -3.1973e-07 103.16 -2.05974e-07 105.763C-9.22194e-08 108.365 2.26342 110.475 5.05551 110.475C7.84759 110.475 10.111 108.365 10.111 105.763Z" fill="#4AA5A5"/>
<path d="M10.111 55.2373C10.111 52.6349 7.84759 50.5252 5.05551 50.5252C2.26342 50.5252 -3.1973e-07 52.6349 -2.05974e-07 55.2373C-9.22194e-08 57.8397 2.26342 59.9495 5.05551 59.9495C7.84759 59.9495 10.111 57.8397 10.111 55.2373Z" fill="#4AA5A5"/>
<path d="M10.111 4.71206C10.111 2.10964 7.84759 -9.1949e-05 5.05551 -9.1808e-05C2.26342 -9.1667e-05 -3.19724e-07 2.10964 -2.05969e-07 4.71206C-9.22134e-08 7.31447 2.26342 9.42407 5.05551 9.42407C7.84759 9.42407 10.111 7.31447 10.111 4.71206Z" fill="#4AA5A5"/>
<path d="M60.2795 156.288C60.2795 153.686 58.0161 151.576 55.224 151.576C52.4319 151.576 50.1685 153.686 50.1685 156.288C50.1685 158.89 52.4319 161 55.224 161C58.0161 161 60.2795 158.89 60.2795 156.288Z" fill="#4AA5A5"/>
<path d="M60.2795 105.763C60.2795 103.16 58.0161 101.051 55.224 101.051C52.4319 101.051 50.1685 103.16 50.1685 105.763C50.1685 108.365 52.4319 110.475 55.224 110.475C58.0161 110.475 60.2795 108.365 60.2795 105.763Z" fill="#4AA5A5"/>
<path d="M60.2795 55.2376C60.2795 52.6351 58.0161 50.5254 55.224 50.5254C52.4319 50.5254 50.1685 52.6351 50.1685 55.2376C50.1685 57.84 52.4319 59.9497 55.224 59.9497C58.0161 59.9497 60.2795 57.84 60.2795 55.2376Z" fill="#4AA5A5"/>
<path d="M60.2795 4.71206C60.2795 2.10964 58.0161 -9.1949e-05 55.224 -9.1808e-05C52.4319 -9.1667e-05 50.1685 2.10964 50.1685 4.71206C50.1685 7.31447 52.4319 9.42407 55.224 9.42407C58.0161 9.42407 60.2795 7.31447 60.2795 4.71206Z" fill="#4AA5A5"/>
<path d="M110.472 156.288C110.472 153.686 108.208 151.576 105.416 151.576C102.624 151.576 100.361 153.686 100.361 156.288C100.361 158.89 102.624 161 105.416 161C108.208 161 110.472 158.89 110.472 156.288Z" fill="#4AA5A5"/>
<path d="M110.472 105.763C110.472 103.16 108.208 101.051 105.416 101.051C102.624 101.051 100.361 103.16 100.361 105.763C100.361 108.365 102.624 110.475 105.416 110.475C108.208 110.475 110.472 108.365 110.472 105.763Z" fill="#4AA5A5"/>
<path d="M110.472 55.2376C110.472 52.6351 108.208 50.5254 105.416 50.5254C102.624 50.5254 100.361 52.6351 100.361 55.2376C100.361 57.84 102.624 59.9497 105.416 59.9497C108.208 59.9497 110.472 57.84 110.472 55.2376Z" fill="#4AA5A5"/>
<path d="M110.472 4.71206C110.472 2.10964 108.208 -9.1949e-05 105.416 -9.1808e-05C102.624 -9.1667e-05 100.361 2.10964 100.361 4.71206C100.361 7.31447 102.624 9.42407 105.416 9.42407C108.208 9.42407 110.472 7.31447 110.472 4.71206Z" fill="#4AA5A5"/>
<path d="M160.641 156.288C160.641 153.686 158.377 151.576 155.585 151.576C152.793 151.576 150.53 153.686 150.53 156.288C150.53 158.89 152.793 161 155.585 161C158.377 161 160.641 158.89 160.641 156.288Z" fill="#4AA5A5"/>
<path d="M160.641 105.763C160.641 103.16 158.377 101.051 155.585 101.051C152.793 101.051 150.53 103.16 150.53 105.763C150.53 108.365 152.793 110.475 155.585 110.475C158.377 110.475 160.641 108.365 160.641 105.763Z" fill="#4AA5A5"/>
<path d="M160.641 55.2376C160.641 52.6351 158.377 50.5254 155.585 50.5254C152.793 50.5254 150.53 52.6351 150.53 55.2376C150.53 57.84 152.793 59.9497 155.585 59.9497C158.377 59.9497 160.641 57.84 160.641 55.2376Z" fill="#4AA5A5"/>
<path d="M160.641 4.71206C160.641 2.10964 158.377 -9.1949e-05 155.585 -9.1808e-05C152.793 -9.1667e-05 150.53 2.10964 150.53 4.71206C150.53 7.31447 152.793 9.42407 155.585 9.42407C158.377 9.42407 160.641 7.31447 160.641 4.71206Z" fill="#4AA5A5"/>
<path d="M210.833 156.288C210.833 153.686 208.57 151.576 205.778 151.576C202.986 151.576 200.722 153.686 200.722 156.288C200.722 158.89 202.986 161 205.778 161C208.57 161 210.833 158.89 210.833 156.288Z" fill="#4AA5A5"/>
<path d="M210.833 105.763C210.833 103.16 208.57 101.051 205.778 101.051C202.986 101.051 200.722 103.16 200.722 105.763C200.722 108.365 202.986 110.475 205.778 110.475C208.57 110.475 210.833 108.365 210.833 105.763Z" fill="#4AA5A5"/>
<path d="M210.833 55.2376C210.833 52.6351 208.57 50.5254 205.778 50.5254C202.986 50.5254 200.722 52.6351 200.722 55.2376C200.722 57.84 202.986 59.9497 205.778 59.9497C208.57 59.9497 210.833 57.84 210.833 55.2376Z" fill="#4AA5A5"/>
<path d="M210.833 4.71206C210.833 2.10964 208.57 -9.1949e-05 205.778 -9.1808e-05C202.986 -9.1667e-05 200.722 2.10964 200.722 4.71206C200.722 7.31447 202.986 9.42407 205.778 9.42407C208.57 9.42407 210.833 7.31447 210.833 4.71206Z" fill="#4AA5A5"/>
<path d="M260.999 156.288C260.999 153.686 258.736 151.576 255.944 151.576C253.152 151.576 250.888 153.686 250.888 156.288C250.888 158.89 253.152 161 255.944 161C258.736 161 260.999 158.89 260.999 156.288Z" fill="#4AA5A5"/>
<path d="M260.999 105.763C260.999 103.16 258.736 101.051 255.944 101.051C253.152 101.051 250.888 103.16 250.888 105.763C250.888 108.365 253.152 110.475 255.944 110.475C258.736 110.475 260.999 108.365 260.999 105.763Z" fill="#4AA5A5"/>
<path d="M260.999 55.2376C260.999 52.6351 258.736 50.5254 255.944 50.5254C253.152 50.5254 250.888 52.6351 250.888 55.2376C250.888 57.84 253.152 59.9497 255.944 59.9497C258.736 59.9497 260.999 57.84 260.999 55.2376Z" fill="#4AA5A5"/>
<path d="M260.999 4.71206C260.999 2.10964 258.736 -9.1949e-05 255.944 -9.1808e-05C253.152 -9.1667e-05 250.888 2.10964 250.888 4.71206C250.888 7.31447 253.152 9.42407 255.944 9.42407C258.736 9.42407 260.999 7.31447 260.999 4.71206Z" fill="#4AA5A5"/>
</svg>
