<svg width="150" height="226" viewBox="0 0 150 226" fill="none" xmlns="http://www.w3.org/2000/svg">
<path d="M4.39007 8.75513C6.81468 8.75513 8.78027 6.79523 8.78027 4.37756C8.78027 1.9599 6.81468 0 4.39007 0C1.96546 0 0 1.9599 0 4.37756C0 6.79523 1.96546 8.75513 4.39007 8.75513Z" fill="#1C1E39"/>
<path d="M51.4634 8.75513C53.888 8.75513 55.8535 6.79523 55.8535 4.37756C55.8535 1.9599 53.888 0 51.4634 0C49.0388 0 47.0732 1.9599 47.0732 4.37756C47.0732 6.79523 49.0388 8.75513 51.4634 8.75513Z" fill="#1C1E39"/>
<path d="M98.5367 8.75513C100.961 8.75513 102.927 6.79523 102.927 4.37756C102.927 1.9599 100.961 0 98.5367 0C96.1121 0 94.1465 1.9599 94.1465 4.37756C94.1465 6.79523 96.1121 8.75513 98.5367 8.75513Z" fill="#1C1E39"/>
<path d="M145.61 8.75513C148.034 8.75513 150 6.79523 150 4.37756C150 1.9599 148.034 0 145.61 0C143.185 0 141.22 1.9599 141.22 4.37756C141.22 6.79523 143.185 8.75513 145.61 8.75513Z" fill="#1C1E39"/>
<path d="M4.39007 52.1961C6.81468 52.1961 8.78027 50.2362 8.78027 47.8185C8.78027 45.4008 6.81468 43.4409 4.39007 43.4409C1.96546 43.4409 0 45.4008 0 47.8185C0 50.2362 1.96546 52.1961 4.39007 52.1961Z" fill="#1C1E39"/>
<path d="M51.4634 52.1961C53.888 52.1961 55.8535 50.2362 55.8535 47.8185C55.8535 45.4008 53.888 43.4409 51.4634 43.4409C49.0388 43.4409 47.0732 45.4008 47.0732 47.8185C47.0732 50.2362 49.0388 52.1961 51.4634 52.1961Z" fill="#1C1E39"/>
<path d="M98.5362 52.1961C100.961 52.1961 102.926 50.2362 102.926 47.8185C102.926 45.4008 100.961 43.4409 98.5362 43.4409C96.1116 43.4409 94.146 45.4008 94.146 47.8185C94.146 50.2362 96.1116 52.1961 98.5362 52.1961Z" fill="#1C1E39"/>
<path d="M145.61 52.1961C148.034 52.1961 150 50.2362 150 47.8185C150 45.4008 148.034 43.4409 145.61 43.4409C143.185 43.4409 141.22 45.4008 141.22 47.8185C141.22 50.2362 143.185 52.1961 145.61 52.1961Z" fill="#1C1E39"/>
<path d="M4.39007 95.658C6.81468 95.658 8.78027 93.6981 8.78027 91.2804C8.78027 88.8628 6.81468 86.9028 4.39007 86.9028C1.96546 86.9028 0 88.8628 0 91.2804C0 93.6981 1.96546 95.658 4.39007 95.658Z" fill="#1C1E39"/>
<path d="M51.4634 95.658C53.888 95.658 55.8535 93.6981 55.8535 91.2804C55.8535 88.8628 53.888 86.9028 51.4634 86.9028C49.0388 86.9028 47.0732 88.8628 47.0732 91.2804C47.0732 93.6981 49.0388 95.658 51.4634 95.658Z" fill="#1C1E39"/>
<path d="M98.5362 95.658C100.961 95.658 102.926 93.6981 102.926 91.2804C102.926 88.8628 100.961 86.9028 98.5362 86.9028C96.1116 86.9028 94.146 88.8628 94.146 91.2804C94.146 93.6981 96.1116 95.658 98.5362 95.658Z" fill="#1C1E39"/>
<path d="M145.61 95.658C148.034 95.658 150 93.6981 150 91.2804C150 88.8628 148.034 86.9028 145.61 86.9028C143.185 86.9028 141.22 88.8628 141.22 91.2804C141.22 93.6981 143.185 95.658 145.61 95.658Z" fill="#1C1E39"/>
<path d="M4.39007 139.099C6.81468 139.099 8.78027 137.139 8.78027 134.721C8.78027 132.304 6.81468 130.344 4.39007 130.344C1.96546 130.344 0 132.304 0 134.721C0 137.139 1.96546 139.099 4.39007 139.099Z" fill="#1C1E39"/>
<path d="M51.4634 139.099C53.888 139.099 55.8535 137.139 55.8535 134.721C55.8535 132.304 53.888 130.344 51.4634 130.344C49.0388 130.344 47.0732 132.304 47.0732 134.721C47.0732 137.139 49.0388 139.099 51.4634 139.099Z" fill="#1C1E39"/>
<path d="M98.5362 139.099C100.961 139.099 102.926 137.139 102.926 134.721C102.926 132.304 100.961 130.344 98.5362 130.344C96.1116 130.344 94.146 132.304 94.146 134.721C94.146 137.139 96.1116 139.099 98.5362 139.099Z" fill="#1C1E39"/>
<path d="M145.61 139.099C148.034 139.099 150 137.139 150 134.721C150 132.304 148.034 130.344 145.61 130.344C143.185 130.344 141.22 132.304 141.22 134.721C141.22 137.139 143.185 139.099 145.61 139.099Z" fill="#1C1E39"/>
<path d="M4.39007 182.56C6.81468 182.56 8.78027 180.6 8.78027 178.183C8.78027 175.765 6.81468 173.805 4.39007 173.805C1.96546 173.805 0 175.765 0 178.183C0 180.6 1.96546 182.56 4.39007 182.56Z" fill="#1C1E39"/>
<path d="M51.4634 182.56C53.888 182.56 55.8535 180.6 55.8535 178.183C55.8535 175.765 53.888 173.805 51.4634 173.805C49.0388 173.805 47.0732 175.765 47.0732 178.183C47.0732 180.6 49.0388 182.56 51.4634 182.56Z" fill="#1C1E39"/>
<path d="M98.5362 182.56C100.961 182.56 102.926 180.6 102.926 178.183C102.926 175.765 100.961 173.805 98.5362 173.805C96.1116 173.805 94.146 175.765 94.146 178.183C94.146 180.6 96.1116 182.56 98.5362 182.56Z" fill="#1C1E39"/>
<path d="M145.61 182.56C148.034 182.56 150 180.6 150 178.183C150 175.765 148.034 173.805 145.61 173.805C143.185 173.805 141.22 175.765 141.22 178.183C141.22 180.6 143.185 182.56 145.61 182.56Z" fill="#1C1E39"/>
<path d="M4.39007 225.999C6.81468 225.999 8.78027 224.039 8.78027 221.622C8.78027 219.204 6.81468 217.244 4.39007 217.244C1.96546 217.244 0 219.204 0 221.622C0 224.039 1.96546 225.999 4.39007 225.999Z" fill="#1C1E39"/>
<path d="M51.4634 225.999C53.888 225.999 55.8535 224.039 55.8535 221.622C55.8535 219.204 53.888 217.244 51.4634 217.244C49.0388 217.244 47.0732 219.204 47.0732 221.622C47.0732 224.039 49.0388 225.999 51.4634 225.999Z" fill="#1C1E39"/>
<path d="M98.5362 225.999C100.961 225.999 102.926 224.039 102.926 221.622C102.926 219.204 100.961 217.244 98.5362 217.244C96.1116 217.244 94.146 219.204 94.146 221.622C94.146 224.039 96.1116 225.999 98.5362 225.999Z" fill="#1C1E39"/>
<path d="M145.61 225.999C148.034 225.999 150 224.039 150 221.622C150 219.204 148.034 217.244 145.61 217.244C143.185 217.244 141.22 219.204 141.22 221.622C141.22 224.039 143.185 225.999 145.61 225.999Z" fill="#1C1E39"/>
</svg>
